<svg xmlns="http://www.w3.org/2000/svg" version="1.1" xmlns:xlink="http://www.w3.org/1999/xlink" xmlns:svgjs="http://svgjs.com/svgjs" width="1920" height="1080" preserveAspectRatio="none" viewBox="0 0 1920 1080">
    <g mask="url(&quot;#SvgjsMask1205&quot;)" fill="none">
        <rect width="1920" height="1080" x="0" y="0" fill="url(#SvgjsLinearGradient1206)"></rect>
        <path d="M1222.336,1010.448C1285.76,1011.296,1350.596,993.095,1385.304,940.003C1423.246,881.964,1430.115,806.018,1395.107,746.163C1360.393,686.809,1291.095,661.65,1222.336,661.362C1152.993,661.072,1081.248,684.387,1047.043,744.708C1013.199,804.392,1028.968,878.467,1066.748,935.741C1100.701,987.213,1160.68,1009.623,1222.336,1010.448" fill="rgba(14, 165, 233, 0.15)" class="triangle-float2"></path>
        <path d="M1338.617,1268.82C1418.138,1265.179,1489.787,1222.385,1529.045,1153.134C1567.758,1084.845,1565.107,1002.987,1528.756,933.412C1489.22,857.741,1423.938,791.758,1338.617,788.654C1248.697,785.382,1168.174,840.886,1122.901,918.646C1077.326,996.925,1067.877,1094.951,1115.386,1172.072C1160.975,1246.078,1251.787,1272.795,1338.617,1268.82" fill="rgba(14, 165, 233, 0.15)" class="triangle-float3"></path>
        <path d="M1996.047,944.707C2085.381,945.976,2153.97,873.517,2196.195,794.782C2235.824,720.887,2246.52,631.388,2202.276,560.16C2160.038,492.16,2075.973,468.11,1996.047,472.56C1924.112,476.565,1863.235,519.37,1826.092,581.103C1787.57,645.127,1773.872,721.541,1805.512,789.232C1842.715,868.825,1908.198,943.459,1996.047,944.707" fill="rgba(14, 165, 233, 0.15)" class="triangle-float3"></path>
        <path d="M691.698,383.195C727.146,382.982,751.683,351.925,769.01,320.999C785.837,290.965,797.091,255.266,780.168,225.285C763.025,194.915,726.572,183.893,691.698,184.033C657.111,184.172,621.634,195.975,604.452,225.992C587.36,255.852,596.065,291.853,612.761,321.937C630.083,353.149,656.002,383.409,691.698,383.195" fill="rgba(14, 165, 233, 0.15)" class="triangle-float2"></path>
        <path d="M325.882,677.239C408.515,674.09,488.827,644.686,533.626,575.18C582.463,499.41,599.337,401.448,553.772,323.666C508.602,246.557,415.247,220.301,325.882,220.548C237.036,220.793,147.95,250.021,100.159,324.918C48.761,405.469,37.234,511.674,88.78,592.13C137.331,667.911,235.947,680.666,325.882,677.239" fill="rgba(14, 165, 233, 0.15)" class="triangle-float1"></path>
        <path d="M1354.693,499.794C1450.371,496.045,1535.151,447.687,1587.955,367.812C1647.795,277.293,1694.981,161.964,1639.785,68.54C1585.143,-23.945,1462.056,-30.515,1354.693,-26.999C1255.237,-23.742,1154.135,2.582,1100.209,86.212C1041.84,176.733,1031.023,295.688,1087.468,387.421C1141.743,475.628,1251.204,503.849,1354.693,499.794" fill="rgba(14, 165, 233, 0.15)" class="triangle-float1"></path>
        <path d="M1820.944,1281.261C1940.596,1280.118,2041.763,1200.468,2099.88,1095.872C2156.222,994.47,2161.795,871.985,2104.348,771.205C2046.357,669.471,1937.861,599.957,1820.944,606.533C1712.835,612.614,1642.377,706.703,1587.858,800.256C1532.802,894.73,1484.936,1002.892,1532.62,1101.293C1585.572,1210.567,1699.522,1282.421,1820.944,1281.261" fill="rgba(14, 165, 233, 0.15)" class="triangle-float2"></path>
        <path d="M1397.949,286.041C1466.745,287.482,1541.681,283.231,1581.262,226.943C1626.244,162.974,1633.378,75.469,1593.198,8.38C1553.921,-57.201,1474.171,-84.953,1397.949,-79.138C1330.963,-74.028,1281.578,-23.652,1248.275,34.693C1215.332,92.407,1193.468,162.437,1227.469,219.534C1260.919,275.706,1332.586,284.672,1397.949,286.041" fill="rgba(14, 165, 233, 0.15)" class="triangle-float3"></path>
        <path d="M1866.318,491.446C1932.786,488.225,1978.622,432.814,2011.798,375.128C2044.846,317.665,2071.974,248.942,2038.787,191.56C2005.629,134.227,1932.46,120.149,1866.318,123.58C1806.757,126.67,1754.611,157.856,1722.288,207.979C1686.527,263.433,1664.286,331.694,1694.176,390.521C1726.47,454.078,1795.111,494.897,1866.318,491.446" fill="rgba(14, 165, 233, 0.15)" class="triangle-float3"></path>
    </g>
    <defs>
        <mask id="SvgjsMask1205">
            <rect width="1920" height="1080" fill="#ffffff"></rect>
        </mask>
        <linearGradient x1="10.94%" y1="-19.44%" x2="89.06%" y2="119.44%" gradientUnits="userSpaceOnUse" id="SvgjsLinearGradient1206">
            <stop stop-color="rgba(0, 69, 158, 1)" offset="0"></stop>
            <stop stop-color="rgba(15, 23, 42, 1)" offset="0"></stop>
        </linearGradient>
        <style>
            @keyframes float1 {
                0%{transform: translate(0, 0)}
                50%{transform: translate(-10px, 0)}
                100%{transform: translate(0, 0)}
            }

            .triangle-float1 {
                animation: float1 5s infinite;
            }

            @keyframes float2 {
                0%{transform: translate(0, 0)}
                50%{transform: translate(-5px, -5px)}
                100%{transform: translate(0, 0)}
            }

            .triangle-float2 {
                animation: float2 4s infinite;
            }

            @keyframes float3 {
                0%{transform: translate(0, 0)}
                50%{transform: translate(0, -10px)}
                100%{transform: translate(0, 0)}
            }

            .triangle-float3 {
                animation: float3 6s infinite;
            }
        </style>
    </defs>
</svg>
